<svg version="1.1" xmlns="http://www.w3.org/2000/svg" viewBox="0 0 969.7017724785087 438.93339511510965" width="2909.105317435526" height="1316.8001853453288" filter="invert(93%) hue-rotate(180deg)">
  <!-- svg-source:excalidraw -->
  
  <defs>
    <style class="style-fonts">
      @font-face {
        font-family: "Virgil";
        src: url("https://excalidraw.com/Virgil.woff2");
      }
      @font-face {
        font-family: "Cascadia";
        src: url("https://excalidraw.com/Cascadia.woff2");
      }
      @font-face {
        font-family: "Assistant";
        src: url("https://app.excalidraw.com//dist/excalidraw-assets/Assistant-Regular.woff2");
      }
    </style>
    
  </defs>
  <g stroke-linecap="round" transform="translate(10 184.08692429658163) rotate(0 48.60396889517918 45.158203125)"><path d="M22.58 0 C39.89 -2.01, 55.2 1.13, 74.63 0 M22.58 0 C39.16 0.72, 55.92 0.61, 74.63 0 M74.63 0 C91.43 -0.73, 95.32 7.34, 97.21 22.58 M74.63 0 C89.68 0.82, 99.44 7.15, 97.21 22.58 M97.21 22.58 C97.23 33.39, 96.71 45.23, 97.21 67.74 M97.21 22.58 C96.73 37.6, 96.8 51.11, 97.21 67.74 M97.21 67.74 C97.88 82.27, 91.27 90.74, 74.63 90.32 M97.21 67.74 C99.23 81.62, 89.05 91.7, 74.63 90.32 M74.63 90.32 C62.5 89.02, 51.76 89.56, 22.58 90.32 M74.63 90.32 C56.39 90.99, 37.64 91.32, 22.58 90.32 M22.58 90.32 C7.62 91.16, 1.77 83.18, 0 67.74 M22.58 90.32 C9.26 90.81, -1.24 82.48, 0 67.74 M0 67.74 C-0.37 55.37, -0.15 41.62, 0 22.58 M0 67.74 C-0.47 50.12, -0.53 33.74, 0 22.58 M0 22.58 C1.51 5.77, 8.87 0.97, 22.58 0 M0 22.58 C1.16 8.46, 6.46 1.85, 22.58 0" stroke="#1e1e1e" stroke-width="2" fill="none"></path></g><g transform="translate(36.263987816077645 216.74512742158163) rotate(0 22.339981079101562 12.5)"><text x="22.339981079101562" y="17.52" font-family="Virgil, Segoe UI Emoji" font-size="20px" fill="#1e1e1e" text-anchor="middle" style="white-space: pre;" direction="ltr" dominant-baseline="alphabetic">User</text></g><g stroke-linecap="round" transform="translate(168.92221716188038 187.61613940788982) rotate(0 55.014912253625766 43.357421875)"><path d="M21.68 0 C42.53 -0.4, 62.7 -1.16, 88.35 0 M21.68 0 C46.71 0.78, 73.16 0.89, 88.35 0 M88.35 0 C103.9 0.13, 111.51 7.15, 110.03 21.68 M88.35 0 C104.58 -1.2, 112.25 8.45, 110.03 21.68 M110.03 21.68 C111.84 36.89, 109.4 50.1, 110.03 65.04 M110.03 21.68 C109.89 34.19, 109.54 44.12, 110.03 65.04 M110.03 65.04 C108.38 79.31, 101.64 86.51, 88.35 86.71 M110.03 65.04 C109.72 77.39, 101.26 87.59, 88.35 86.71 M88.35 86.71 C70.99 88.92, 49.83 85.16, 21.68 86.71 M88.35 86.71 C73.52 86.86, 58.27 85.69, 21.68 86.71 M21.68 86.71 C7.19 88.51, -0.6 81.12, 0 65.04 M21.68 86.71 C7.79 87.72, -2.08 80.52, 0 65.04 M0 65.04 C1.31 53.39, 0.89 43.55, 0 21.68 M0 65.04 C-0.32 51.09, -0.28 35.05, 0 21.68 M0 21.68 C-1.8 6.27, 8.69 -0.12, 21.68 0 M0 21.68 C0.26 8.13, 6.25 0.47, 21.68 0" stroke="#1e1e1e" stroke-width="2" fill="none"></path></g><g transform="translate(197.1771577968538 218.47356128288982) rotate(0 26.759971618652344 12.5)"><text x="26.759971618652344" y="17.52" font-family="Virgil, Segoe UI Emoji" font-size="20px" fill="#1e1e1e" text-anchor="middle" style="white-space: pre;" direction="ltr" dominant-baseline="alphabetic">Proxy</text></g><g stroke-linecap="round" transform="translate(347.1243727522222 187.6682854499429) rotate(0 74.43421624676068 41.919921875)"><path d="M20.96 0 C55.29 1.32, 88.72 -1.82, 127.91 0 M20.96 0 C63.59 1.56, 104.36 0.28, 127.91 0 M127.91 0 C141.58 -1.14, 150.09 6.75, 148.87 20.96 M127.91 0 C142.45 -1.03, 150.06 6.87, 148.87 20.96 M148.87 20.96 C147.63 33.19, 147.34 45.6, 148.87 62.88 M148.87 20.96 C147.63 35.68, 148.83 51.72, 148.87 62.88 M148.87 62.88 C147.51 76.81, 141.33 84.9, 127.91 83.84 M148.87 62.88 C147.98 78.91, 143.44 83.14, 127.91 83.84 M127.91 83.84 C101.5 83.01, 73.44 81.96, 20.96 83.84 M127.91 83.84 C85.83 84.31, 43.85 83.63, 20.96 83.84 M20.96 83.84 C7.97 81.9, -1.39 76.89, 0 62.88 M20.96 83.84 C5.71 85.08, -1.53 78.05, 0 62.88 M0 62.88 C1.58 48.07, 0.13 29.61, 0 20.96 M0 62.88 C0.77 50.28, 1.39 35.83, 0 20.96 M0 20.96 C-1.49 8.7, 5.79 -1.5, 20.96 0 M0 20.96 C2.03 7.17, 6.22 1.73, 20.96 0" stroke="#1e1e1e" stroke-width="2" fill="none"></path></g><g transform="translate(378.11863996333835 217.0882073249429) rotate(0 43.43994903564453 12.5)"><text x="43.43994903564453" y="17.52" font-family="Virgil, Segoe UI Emoji" font-size="20px" fill="#1e1e1e" text-anchor="middle" style="white-space: pre;" direction="ltr" dominant-baseline="alphabetic">Postgres</text></g><g stroke-linecap="round" transform="translate(164.3877123280472 340.0637876451375) rotate(0 72.87473235212877 41.919921875)"><path d="M20.96 0 C60.53 1.22, 102.82 -0.34, 124.79 0 M20.96 0 C44.05 0.6, 67.7 1.77, 124.79 0 M124.79 0 C138.53 0.95, 147.59 5.15, 145.75 20.96 M124.79 0 C136.83 -0.24, 145.1 6.22, 145.75 20.96 M145.75 20.96 C144.11 30.55, 146.64 38.05, 145.75 62.88 M145.75 20.96 C144.93 35.37, 145.12 48.71, 145.75 62.88 M145.75 62.88 C146.98 78.19, 138.51 83.86, 124.79 83.84 M145.75 62.88 C147.21 74.75, 140.48 82.41, 124.79 83.84 M124.79 83.84 C92.62 83.87, 59.52 82.87, 20.96 83.84 M124.79 83.84 C84.05 83.26, 44.95 84.3, 20.96 83.84 M20.96 83.84 C8.62 85.47, 1.42 77.61, 0 62.88 M20.96 83.84 C5.6 82.38, -0.8 78.71, 0 62.88 M0 62.88 C-0.47 47.29, -0.64 29.21, 0 20.96 M0 62.88 C-0.16 51.52, -0.76 41.81, 0 20.96 M0 20.96 C1.26 7.56, 8.6 0.07, 20.96 0 M0 20.96 C0.32 6.98, 8.12 -1, 20.96 0" stroke="#1e1e1e" stroke-width="2" fill="none"></path></g><g transform="translate(183.67250174804707 369.4837095201375) rotate(0 53.589942932128906 12.5)"><text x="53.589942932128906" y="17.52" font-family="Virgil, Segoe UI Emoji" font-size="20px" fill="#1e1e1e" text-anchor="middle" style="white-space: pre;" direction="ltr" dominant-baseline="alphabetic">Safekeeper</text></g><g stroke-linecap="round" transform="translate(541.9252215665267 343.98799725004517) rotate(0 72.87473235212877 41.919921875)"><path d="M20.96 0 C49.23 -1.74, 76.57 -0.2, 124.79 0 M20.96 0 C44.04 -1.5, 65.96 -1.2, 124.79 0 M124.79 0 C138.34 0.95, 145.78 5.53, 145.75 20.96 M124.79 0 C138.18 1.1, 144.49 7.37, 145.75 20.96 M145.75 20.96 C146.09 30.41, 147.43 42.09, 145.75 62.88 M145.75 20.96 C145.27 33.01, 146.96 44.92, 145.75 62.88 M145.75 62.88 C144.27 77.01, 139.31 85.36, 124.79 83.84 M145.75 62.88 C144.94 76.8, 139.37 84.75, 124.79 83.84 M124.79 83.84 C97.9 82.71, 73.91 85.41, 20.96 83.84 M124.79 83.84 C90.58 85.3, 57.44 84.9, 20.96 83.84 M20.96 83.84 C7.91 85.43, -1.78 78.62, 0 62.88 M20.96 83.84 C6.28 82.1, 0.77 75.34, 0 62.88 M0 62.88 C-1.79 48.41, -0.77 39.07, 0 20.96 M0 62.88 C0.25 47.12, -0.55 31.89, 0 20.96 M0 20.96 C1.28 5.59, 7.86 0.87, 20.96 0 M0 20.96 C-1.39 5.28, 6.3 0.5, 20.96 0" stroke="#1e1e1e" stroke-width="2" fill="none"></path></g><g transform="translate(561.2100109865266 373.40791912504517) rotate(0 53.589942932128906 12.5)"><text x="53.589942932128906" y="17.52" font-family="Virgil, Segoe UI Emoji" font-size="20px" fill="#1e1e1e" text-anchor="middle" style="white-space: pre;" direction="ltr" dominant-baseline="alphabetic">Safekeeper</text></g><g stroke-linecap="round" transform="translate(350.5802221679068 340.0866406617056) rotate(0 72.87473235212877 41.91992187499994)"><path d="M20.96 0 C44.28 -2.38, 65.28 -1.78, 124.79 0 M20.96 0 C49.2 -0.27, 79.39 -0.56, 124.79 0 M124.79 0 C139.09 -0.77, 144.69 7.1, 145.75 20.96 M124.79 0 C139.41 -1.74, 147.94 6.05, 145.75 20.96 M145.75 20.96 C144.45 32.68, 147.82 44.12, 145.75 62.88 M145.75 20.96 C146.54 30.09, 145.76 40.19, 145.75 62.88 M145.75 62.88 C146.54 75.8, 139.42 84.63, 124.79 83.84 M145.75 62.88 C144.36 75.09, 139.33 85.18, 124.79 83.84 M124.79 83.84 C89.65 85.72, 56.64 84.91, 20.96 83.84 M124.79 83.84 C89.73 82.61, 52.14 83.25, 20.96 83.84 M20.96 83.84 C5.67 83.94, 1.67 77.01, 0 62.88 M20.96 83.84 C5.33 81.91, -0.48 78.9, 0 62.88 M0 62.88 C0.91 47.09, -0.68 32.37, 0 20.96 M0 62.88 C0.73 47.01, -0.45 32.05, 0 20.96 M0 20.96 C0.43 8.7, 8.03 -1.97, 20.96 0 M0 20.96 C-0.39 7.66, 6.82 0.15, 20.96 0" stroke="#1e1e1e" stroke-width="2" fill="none"></path></g><g transform="translate(369.86501158790674 369.5065625367056) rotate(0 53.589942932128906 12.499999999999943)"><text x="53.589942932128906" y="17.52" font-family="Virgil, Segoe UI Emoji" font-size="20px" fill="#1e1e1e" text-anchor="middle" style="white-space: pre;" direction="ltr" dominant-baseline="alphabetic">Safekeeper</text></g><g stroke-linecap="round" transform="translate(547.8286024081203 10) rotate(0 72.87473235212877 41.919921875)"><path d="M20.96 0 C48.3 -0.18, 72.96 -0.12, 124.79 0 M20.96 0 C60.14 0.39, 98.8 0.81, 124.79 0 M124.79 0 C140.37 -0.91, 147.73 7.85, 145.75 20.96 M124.79 0 C137.79 0.51, 143.47 6.66, 145.75 20.96 M145.75 20.96 C146.87 36.55, 144.16 52.24, 145.75 62.88 M145.75 20.96 C146.45 32.82, 145.2 44.31, 145.75 62.88 M145.75 62.88 C145.44 76.37, 138.28 83.6, 124.79 83.84 M145.75 62.88 C145.91 78.18, 138.21 85.51, 124.79 83.84 M124.79 83.84 C103.11 85.77, 79.26 84.54, 20.96 83.84 M124.79 83.84 C89.01 83.34, 55.14 83.99, 20.96 83.84 M20.96 83.84 C5.23 83.08, -1.02 75.71, 0 62.88 M20.96 83.84 C5.09 85.5, -0.22 74.78, 0 62.88 M0 62.88 C-0.12 52.47, -0.47 41.64, 0 20.96 M0 62.88 C0.2 49.48, -0.1 36.15, 0 20.96 M0 20.96 C1.57 6.15, 8.77 -0.61, 20.96 0 M0 20.96 C0.53 7.81, 5.74 1.65, 20.96 0" stroke="#1e1e1e" stroke-width="2" fill="none"></path></g><g transform="translate(566.7433890815382 39.419921875) rotate(0 53.95994567871094 12.5)"><text x="53.95994567871094" y="17.52" font-family="Virgil, Segoe UI Emoji" font-size="20px" fill="#1e1e1e" text-anchor="middle" style="white-space: pre;" direction="ltr" dominant-baseline="alphabetic">Pageserver</text></g><g stroke-linecap="round" transform="translate(739.5282064769096 10.166022766033848) rotate(0 72.87473235212877 41.919921875)"><path d="M20.96 0 C41.63 0.76, 64.62 -0.16, 124.79 0 M20.96 0 C61.64 -0.79, 102.63 0.25, 124.79 0 M124.79 0 C137.63 0.44, 144.38 8.59, 145.75 20.96 M124.79 0 C139.76 1.3, 146.98 7.54, 145.75 20.96 M145.75 20.96 C145.21 34.11, 144.52 48.94, 145.75 62.88 M145.75 20.96 C145.1 34.77, 146.53 47.21, 145.75 62.88 M145.75 62.88 C146.62 75.73, 138.86 81.93, 124.79 83.84 M145.75 62.88 C145.01 75.34, 138.46 82.2, 124.79 83.84 M124.79 83.84 C86.31 84.76, 47.81 83.14, 20.96 83.84 M124.79 83.84 C94.51 83.04, 63.95 82.73, 20.96 83.84 M20.96 83.84 C5.75 85.18, -1.22 75.76, 0 62.88 M20.96 83.84 C4.77 83.66, 1.1 75.59, 0 62.88 M0 62.88 C0.3 49.34, 0.58 37.74, 0 20.96 M0 62.88 C-0.99 47.15, 0.44 31.85, 0 20.96 M0 20.96 C0.59 8.24, 5.75 -1.05, 20.96 0 M0 20.96 C-1.09 8.28, 5.38 -0.29, 20.96 0" stroke="#1e1e1e" stroke-width="2" fill="none"></path></g><g transform="translate(758.4429931503275 39.58594464103385) rotate(0 53.95994567871088 12.5)"><text x="53.95994567871094" y="17.52" font-family="Virgil, Segoe UI Emoji" font-size="20px" fill="#1e1e1e" text-anchor="middle" style="white-space: pre;" direction="ltr" dominant-baseline="alphabetic">Pageserver</text></g><g stroke-linecap="round"><g transform="translate(503.39812721776485 224.04908623054996) rotate(0 59.70891637436665 -60.35355030214555)"><path d="M0.51 0.42 C18.56 -6.48, 87.85 -20.72, 107.61 -40.67 C127.37 -60.61, 117.33 -106.07, 119.06 -119.24 M-0.69 -0.4 C17.34 -7.2, 87.2 -19.23, 107.02 -39.35 C126.84 -59.47, 116.46 -107.96, 118.23 -121.13" stroke="#1e1e1e" stroke-width="2" fill="none"></path></g><g transform="translate(503.39812721776485 224.04908623054996) rotate(0 59.70891637436665 -60.35355030214555)"><path d="M127.43 -97.89 C125.79 -102.27, 122.18 -109.16, 118.23 -121.13 M127.43 -97.89 C124.58 -106.96, 120.27 -115.83, 118.23 -121.13" stroke="#1e1e1e" stroke-width="2" fill="none"></path></g><g transform="translate(503.39812721776485 224.04908623054996) rotate(0 59.70891637436665 -60.35355030214555)"><path d="M110.33 -97.41 C112.78 -101.98, 113.26 -108.99, 118.23 -121.13 M110.33 -97.41 C113.84 -106.72, 115.89 -115.76, 118.23 -121.13" stroke="#1e1e1e" stroke-width="2" fill="none"></path></g></g><mask></mask><g stroke-linecap="round"><g transform="translate(507.12756544989674 233.61370720361992) rotate(0 117.37187515660287 -64.34190892508906)"><path d="M-0.22 -0.95 C19.46 -5.54, 78.72 -6.76, 118.18 -28.24 C157.64 -49.73, 216.75 -113.26, 236.54 -129.85 M-1.8 1.17 C17.78 -3.74, 78 -8.54, 117.62 -30.26 C157.24 -51.99, 215.94 -112.56, 235.92 -129.16" stroke="#1e1e1e" stroke-width="2" fill="none"></path></g><g transform="translate(507.12756544989674 233.61370720361992) rotate(0 117.37187515660287 -64.34190892508906)"><path d="M224.35 -107 C226.48 -112.55, 231.93 -120.17, 235.92 -129.16 M224.35 -107 C225.89 -111.7, 228.89 -116.32, 235.92 -129.16" stroke="#1e1e1e" stroke-width="2" fill="none"></path></g><g transform="translate(507.12756544989674 233.61370720361992) rotate(0 117.37187515660287 -64.34190892508906)"><path d="M212.81 -119.62 C218.42 -121.26, 227.42 -125, 235.92 -129.16 M212.81 -119.62 C216.73 -121.88, 222.03 -123.97, 235.92 -129.16" stroke="#1e1e1e" stroke-width="2" fill="none"></path></g></g><mask></mask><g stroke-linecap="round"><g transform="translate(416.7139966691797 280.9746483014618) rotate(0 -53.863921772063804 23.084953190744216)"><path d="M-1.14 0.74 C-19.14 8.24, -90.71 37.61, -108.2 45.11 M0.47 0.08 C-17.17 7.68, -88.31 38.29, -106.11 46.09" stroke="#1e1e1e" stroke-width="2" fill="none"></path></g><g transform="translate(416.7139966691797 280.9746483014618) rotate(0 -53.863921772063804 23.084953190744216)"><path d="M-87.96 28.9 C-91.92 31.65, -100.1 40.11, -106.11 46.09 M-87.96 28.9 C-93.57 34.18, -98.51 37.65, -106.11 46.09" stroke="#1e1e1e" stroke-width="2" fill="none"></path></g><g transform="translate(416.7139966691797 280.9746483014618) rotate(0 -53.863921772063804 23.084953190744216)"><path d="M-81.16 44.59 C-87.07 42.79, -97.2 46.76, -106.11 46.09 M-81.16 44.59 C-88.61 45.73, -95.36 45.01, -106.11 46.09" stroke="#1e1e1e" stroke-width="2" fill="none"></path></g></g><mask></mask><g stroke-linecap="round"><g transform="translate(426.27447839128973 284.8336652778154) rotate(0 0.18786861587147996 22.74901833635738)"><path d="M0.14 0.18 C0.05 7.77, -0.29 38.07, -0.26 45.69 M-0.45 -0.2 C-0.38 7.2, 0.73 37.27, 0.83 44.81" stroke="#1e1e1e" stroke-width="2" fill="none"></path></g><g transform="translate(426.27447839128973 284.8336652778154) rotate(0 0.18786861587147996 22.74901833635738)"><path d="M-7.52 23.63 C-4.23 30.5, -1.36 39.01, 0.83 44.81 M-7.52 23.63 C-4.88 31.3, -1.55 39.33, 0.83 44.81" stroke="#1e1e1e" stroke-width="2" fill="none"></path></g><g transform="translate(426.27447839128973 284.8336652778154) rotate(0 0.18786861587147996 22.74901833635738)"><path d="M8.05 23.21 C5.9 30.25, 3.32 38.9, 0.83 44.81 M8.05 23.21 C4.95 31.01, 2.54 39.18, 0.83 44.81" stroke="#1e1e1e" stroke-width="2" fill="none"></path></g></g><mask></mask><g stroke-linecap="round"><g transform="translate(439.6251383818856 279.5411834435089) rotate(0 50.26493685605169 27.850094223541134)"><path d="M-1.12 -0.12 C15.65 9.09, 84.46 45.97, 101.65 55.38 M0.49 -1.22 C17.03 8.18, 83.97 47.63, 100.82 56.92" stroke="#1e1e1e" stroke-width="2" fill="none"></path></g><g transform="translate(439.6251383818856 279.5411834435089) rotate(0 50.26493685605169 27.850094223541134)"><path d="M76.19 52.67 C85.48 54.9, 95.19 57.15, 100.82 56.92 M76.19 52.67 C85.59 54.6, 94.87 55, 100.82 56.92" stroke="#1e1e1e" stroke-width="2" fill="none"></path></g><g transform="translate(439.6251383818856 279.5411834435089) rotate(0 50.26493685605169 27.850094223541134)"><path d="M84.69 37.83 C90.72 45.69, 97.16 53.66, 100.82 56.92 M84.69 37.83 C90.84 45.44, 96.87 51.51, 100.82 56.92" stroke="#1e1e1e" stroke-width="2" fill="none"></path></g></g><mask></mask><g stroke-linecap="round"><g transform="translate(618.7313082466248 335.8026544502842) rotate(0 7.734956866149332 -116.52198859677577)"><path d="M0.22 -0.22 C2.65 -38.96, 11.72 -194.01, 14.42 -232.83 M-1.13 -1.38 C1.68 -39.89, 13.73 -192.9, 16.6 -231.33" stroke="#1e1e1e" stroke-width="2" fill="none"></path></g><g transform="translate(618.7313082466248 335.8026544502842) rotate(0 7.734956866149332 -116.52198859677577)"><path d="M23.32 -207.25 C21.12 -215.8, 19.41 -219.45, 16.6 -231.33 M23.32 -207.25 C21.31 -214.52, 19.13 -220.54, 16.6 -231.33" stroke="#1e1e1e" stroke-width="2" fill="none"></path></g><g transform="translate(618.7313082466248 335.8026544502842) rotate(0 7.734956866149332 -116.52198859677577)"><path d="M6.27 -208.57 C8.94 -216.77, 12.11 -220.05, 16.6 -231.33 M6.27 -208.57 C8.87 -215.5, 11.29 -221.16, 16.6 -231.33" stroke="#1e1e1e" stroke-width="2" fill="none"></path></g></g><mask></mask><g stroke-linecap="round"><g transform="translate(637.7915316544909 329.97161096030607) rotate(0 57.60310432937382 -111.85219235703903)"><path d="M0.1 -0.77 C19.59 -37.88, 97.41 -186.24, 116.51 -223.61 M-1.3 1.44 C18.16 -35.89, 97.03 -187.6, 116.17 -225.14" stroke="#1e1e1e" stroke-width="2" fill="none"></path></g><g transform="translate(637.7915316544909 329.97161096030607) rotate(0 57.60310432937382 -111.85219235703903)"><path d="M113 -200.34 C112.76 -205.05, 116.79 -214.75, 116.17 -225.14 M113 -200.34 C113.24 -207.11, 114.51 -213.56, 116.17 -225.14" stroke="#1e1e1e" stroke-width="2" fill="none"></path></g><g transform="translate(637.7915316544909 329.97161096030607) rotate(0 57.60310432937382 -111.85219235703903)"><path d="M97.8 -208.18 C101.57 -210.81, 109.66 -218.41, 116.17 -225.14 M97.8 -208.18 C102.29 -212.6, 107.82 -216.85, 116.17 -225.14" stroke="#1e1e1e" stroke-width="2" fill="none"></path></g></g><mask></mask><g stroke-linecap="round" transform="translate(757.6233194749145 342.69584471283565) rotate(0 101.03922650179709 43.118775201137)"><path d="M21.56 0 C79.33 -0.03, 136.02 -0.18, 180.52 0 M21.56 0 C71.25 -0.02, 121.68 -0.17, 180.52 0 M180.52 0 C194.31 -0.19, 203.05 6.7, 202.08 21.56 M180.52 0 C192.84 -1.63, 204.14 8.51, 202.08 21.56 M202.08 21.56 C203.28 33.31, 202.54 41.76, 202.08 64.68 M202.08 21.56 C202.7 37.69, 202.15 55.75, 202.08 64.68 M202.08 64.68 C200.36 78.14, 193.51 87.01, 180.52 86.24 M202.08 64.68 C200.83 77.58, 195.09 87.16, 180.52 86.24 M180.52 86.24 C128.17 86.64, 72.01 85.62, 21.56 86.24 M180.52 86.24 C136.92 84.57, 95.36 85.03, 21.56 86.24 M21.56 86.24 C6.29 84.47, -1.22 80.87, 0 64.68 M21.56 86.24 C7.92 87.75, 1.91 79.83, 0 64.68 M0 64.68 C1.68 49.03, 0.14 34.43, 0 21.56 M0 64.68 C0.49 53.63, -0.46 43.74, 0 21.56 M0 21.56 C-0.65 8.06, 8.91 1.03, 21.56 0 M0 21.56 C0.39 6.74, 9.22 1.17, 21.56 0" stroke="#1e1e1e" stroke-width="2" fill="none"></path></g><g transform="translate(845.7725542164576 373.3146199139727) rotate(0 12.889991760253906 12.5)"><text x="12.889991760253906" y="17.52" font-family="Virgil, Segoe UI Emoji" font-size="20px" fill="#1e1e1e" text-anchor="middle" style="white-space: pre;" direction="ltr" dominant-baseline="alphabetic">S3</text></g><g stroke-linecap="round"><g transform="translate(678.2495057747756 107.05204515367791) rotate(0 42.28982077269967 111.81548322305838)"><path d="M0.3 1.11 C14.61 37.89, 71.35 184.91, 85.58 221.61 M-1.01 0.64 C13.14 37.52, 70.13 186.05, 84.43 222.99" stroke="#1e1e1e" stroke-width="2" fill="none"></path></g><g transform="translate(678.2495057747756 107.05204515367791) rotate(0 42.28982077269967 111.81548322305838)"><path d="M68 204.14 C74.55 208.66, 76.76 214.05, 84.43 222.99 M68 204.14 C72.73 208.79, 76.88 213.44, 84.43 222.99" stroke="#1e1e1e" stroke-width="2" fill="none"></path></g><g transform="translate(678.2495057747756 107.05204515367791) rotate(0 42.28982077269967 111.81548322305838)"><path d="M83.96 197.99 C86.13 204.25, 83.92 211.35, 84.43 222.99 M83.96 197.99 C84.72 204.28, 84.91 210.46, 84.43 222.99" stroke="#1e1e1e" stroke-width="2" fill="none"></path></g></g><mask></mask><g stroke-linecap="round"><g transform="translate(787.5001050872979 107.21387309218358) rotate(0 1.5257738920191741 111.9834690389286)"><path d="M0.77 -0.72 C1.47 36.91, 2.9 187.35, 3.34 224.69 M-0.29 1.52 C0.34 38.93, 1.92 185.99, 2.41 223.15" stroke="#1e1e1e" stroke-width="2" fill="none"></path></g><g transform="translate(787.5001050872979 107.21387309218358) rotate(0 1.5257738920191741 111.9834690389286)"><path d="M-6.42 199.76 C-5.82 205.09, -0.75 210.49, 2.41 223.15 M-6.42 199.76 C-3.24 206.06, -2.05 211.9, 2.41 223.15" stroke="#1e1e1e" stroke-width="2" fill="none"></path></g><g transform="translate(787.5001050872979 107.21387309218358) rotate(0 1.5257738920191741 111.9834690389286)"><path d="M10.68 199.56 C7.39 205.04, 8.58 210.49, 2.41 223.15 M10.68 199.56 C9.1 205.94, 5.55 211.84, 2.41 223.15" stroke="#1e1e1e" stroke-width="2" fill="none"></path></g></g><mask></mask><g stroke-linecap="round"><g transform="translate(700.2748462327654 385.2956544560061) rotate(0 20.719957677862624 -0.35469640533989377)"><path d="M0.42 0.25 C7.34 0.28, 34.57 -0.03, 41.47 -0.11 M-0.03 -0.09 C6.81 -0.2, 34.02 -1.04, 40.96 -0.96" stroke="#1e1e1e" stroke-width="2" fill="none"></path></g><g transform="translate(700.2748462327654 385.2956544560061) rotate(0 20.719957677862624 -0.35469640533989377)"><path d="M21.48 6.4 C27.58 3.91, 33.15 2.43, 40.96 -0.96 M21.48 6.4 C27.75 4.5, 33.51 1.28, 40.96 -0.96" stroke="#1e1e1e" stroke-width="2" fill="none"></path></g><g transform="translate(700.2748462327654 385.2956544560061) rotate(0 20.719957677862624 -0.35469640533989377)"><path d="M21.31 -7.84 C27.42 -6.23, 33.04 -3.6, 40.96 -0.96 M21.31 -7.84 C27.56 -5.22, 33.38 -3.93, 40.96 -0.96" stroke="#1e1e1e" stroke-width="2" fill="none"></path></g></g><mask></mask><g stroke-linecap="round"><g transform="translate(122.34821591298436 230.40957648489837) rotate(0 16.403133455202322 -0.3704202161268313)"><path d="M-0.4 -0.38 C4.92 -0.58, 26.6 -1.24, 32.15 -1.36 M0.4 0.62 C5.87 0.52, 27.81 -0.21, 33.2 -0.65" stroke="#1e1e1e" stroke-width="2" fill="none"></path></g><g transform="translate(122.34821591298436 230.40957648489837) rotate(0 16.403133455202322 -0.3704202161268313)"><path d="M18.23 5.72 C22.85 3.05, 28.61 1.95, 33.2 -0.65 M18.23 5.72 C23.28 3.69, 29.15 1.13, 33.2 -0.65" stroke="#1e1e1e" stroke-width="2" fill="none"></path></g><g transform="translate(122.34821591298436 230.40957648489837) rotate(0 16.403133455202322 -0.3704202161268313)"><path d="M17.64 -5.39 C22.45 -4.23, 28.42 -1.49, 33.2 -0.65 M17.64 -5.39 C22.93 -3.49, 29.01 -2.11, 33.2 -0.65" stroke="#1e1e1e" stroke-width="2" fill="none"></path></g></g><mask></mask><g stroke-linecap="round"><g transform="translate(290.2921344393746 230.40399621115682) rotate(0 22.92491751475447 0.09032391817044072)"><path d="M0.44 0.52 C8.05 0.43, 38.23 -0.31, 45.84 -0.34 M0.01 0.31 C7.52 0.27, 37.76 0.34, 45.4 0.19" stroke="#1e1e1e" stroke-width="2" fill="none"></path></g><g transform="translate(290.2921344393746 230.40399621115682) rotate(0 22.92491751475447 0.09032391817044072)"><path d="M23.91 8.18 C32.12 5.36, 37.87 3.1, 45.4 0.19 M23.91 8.18 C31.64 5.68, 39.26 2.81, 45.4 0.19" stroke="#1e1e1e" stroke-width="2" fill="none"></path></g><g transform="translate(290.2921344393746 230.40399621115682) rotate(0 22.92491751475447 0.09032391817044072)"><path d="M23.8 -7.5 C32.08 -5.01, 37.86 -1.95, 45.4 0.19 M23.8 -7.5 C31.61 -4.3, 39.27 -1.47, 45.4 0.19" stroke="#1e1e1e" stroke-width="2" fill="none"></path></g></g><mask></mask></svg>